<svg width="16" height="16" viewBox="0 0 16 16" xmlns="http://www.w3.org/2000/svg" shape-rendering="geometricPrecision"><title>liked_16dp</title><g fill="none" fill-rule="evenodd"><path d="M12.816 14.007L5.63 14c-.364 0-.63-.272-.63-.642 0 0-.005-3.386-.005-5.127 0-.6-.193-1.168.76-2.47.844-1.152 1.24-1.726 1.73-2.095.468-.353.745-.773.745-1.098l-.002-.95h.002c0-.5.264-.976.892-.976.304 0 .55.066.775.345.362.405.615 1.048.615 2.066 0 1.02-1.04 2.63-1.04 2.63L14 5.678l-.008.057a1.257 1.257 0 0 1-.287 2.488v.01a1.118 1.118 0 1 1-.257 2.22l-.002.016h.023a.98.98 0 0 1 .183 1.94.98.98 0 0 1-.614 1.59l-.002.007h-.063a.992.992 0 0 1-.158 0zM1.5 7.01h2.333a.5.5 0 0 1 .5.5v6.657a.5.5 0 0 1-.5.5H1.5a.5.5 0 0 1-.5-.5V7.51a.5.5 0 0 1 .5-.5z" fill="#5890FF"/><path d="M0 0h16v16H0z"/></g></svg>